<svg
  role="none"
  width="100%"
  height="100%"
  viewBox="0 0 56 56"
  fill="none"
  xmlns="http://www.w3.org/2000/svg"
>
  <path
    d="M0 28C0 12.536 12.536 0 28 0V0C43.464 0 56 12.536 56 28V28C56 43.464 43.464 56 28 56V56C12.536 56 0 43.464 0 28V28Z"
    fill="#220041"
  />
  <path
    fillRule="evenodd"
    clipRule="evenodd"
    d="M27.9092 21.3636H21.3638V27.9091H27.9092V21.3636ZM27.9092 30.0909H21.3638V36.6364H27.9092V30.0909ZM28.8931 32.1657L34.5616 28.8929L37.8343 34.5615L32.1658 37.8342L28.8931 32.1657ZM36.6365 21.3636H30.091V27.9091H36.6365V21.3636Z"
    fill="white"
  />
</svg>