<svg width="18" height="18" viewBox="0 0 24 24" fill="none" xmlns="http://www.w3.org/2000/svg">
  <path d="M21 16V8a2 2 0 0 0-1-1.73l-7-4a2 2 0 0 0-2 0l-7 4A2 2 0 0 0 3 8v8a2 2 0 0 0 1 1.73l7 4a2 2 0 0 0 2 0l7-4A2 2 0 0 0 21 16z" stroke="#6366f1" strokeWidth="2" />
  <polyline points="7.5,4.21 12,6.81 16.5,4.21" stroke="#6366f1" strokeWidth="2" />
  <polyline points="7.5,19.79 7.5,14.6 3,12" stroke="#6366f1" strokeWidth="2" />
  <polyline points="21,12 16.5,14.6 16.5,19.79" stroke="#6366f1" strokeWidth="2" />
  <polyline points="12,22.08 12,17" stroke="#6366f1" strokeWidth="2" />
  <line x1="12" y1="6.81" x2="12" y2="12" stroke="#6366f1" strokeWidth="2" />
</svg> 