<svg
  width="60"
  height="60"
  viewBox="0 0 60 60"
  fill="none"
  xmlns="http://www.w3.org/2000/svg"
>
  <circle cx="30" cy="30" r="30" fill="url(#collaboration-gradient)" />
  <path
    d="M25 28C25 28 27 30 30 30C33 30 35 28 35 28C35 28 37 26 40 26C42 26 42 28 42 30C42 32 40 34 37 34H23C20 34 18 32 18 30C18 28 20 26 22 26C25 26 25 28 25 28Z"
    fill="white"
  />
  <circle cx="23" cy="22" r="3" fill="white" />
  <circle cx="37" cy="22" r="3" fill="white" />
  <path
    d="M28 38L32 42L28 46"
    fill="none"
    stroke="white"
    strokeWidth="2"
    strokeLinecap="round"
    strokeLinejoin="round"
  />
  <defs>
    <linearGradient
      id="collaboration-gradient"
      x1="0"
      y1="0"
      x2="60"
      y2="60"
      gradientUnits="userSpaceOnUse"
    >
      <stop stopColor="#b76efc" />
      <stop offset="1" stopColor="#b76efc" />
    </linearGradient>
  </defs>
</svg> 